<svg width="64" height="64" viewBox="0 0 64 64" fill="none" xmlns="http://www.w3.org/2000/svg">
<circle cx="31.5922" cy="31.5922" r="31.5922" fill="black"/>
<g clip-path="url(#clip0_1_64)">
<path d="M45.4375 21.3526C45.0739 20.9164 44.6188 20.5655 44.1044 20.3249C43.59 20.0844 43.0289 19.96 42.461 19.9607H21.5654L21.5111 19.5071C21.4 18.5642 20.9468 17.6948 20.2374 17.0638C19.528 16.4327 18.6118 16.0839 17.6623 16.0835H17.3754C17.0326 16.0835 16.7039 16.2197 16.4615 16.462C16.2192 16.7044 16.083 17.0331 16.083 17.3759C16.083 17.7187 16.2192 18.0474 16.4615 18.2898C16.7039 18.5321 17.0326 18.6683 17.3754 18.6683H17.6623C17.9789 18.6684 18.2844 18.7846 18.521 18.9949C18.7575 19.2053 18.9087 19.4951 18.9457 19.8095L20.724 34.9307C20.9087 36.5033 21.6642 37.9533 22.8473 39.0056C24.0305 40.058 25.5587 40.6393 27.1421 40.6392H40.6387C40.9815 40.6392 41.3102 40.5031 41.5526 40.2607C41.795 40.0183 41.9312 39.6896 41.9312 39.3468C41.9312 39.0041 41.795 38.6753 41.5526 38.433C41.3102 38.1906 40.9815 38.0544 40.6387 38.0544H27.1421C26.3422 38.0522 25.5626 37.8026 24.9101 37.3398C24.2576 36.877 23.7642 36.2238 23.4975 35.4696H38.903C40.4181 35.4697 41.8851 34.9374 43.0476 33.9658C44.2101 32.9942 44.9942 31.645 45.263 30.1539L46.2775 24.5268C46.3788 23.9685 46.356 23.3947 46.2109 22.8462C46.0657 22.2977 45.8016 21.7878 45.4375 21.3526V21.3526Z" fill="white"/>
<path d="M25.1299 47.1013C26.5574 47.1013 27.7147 45.944 27.7147 44.5165C27.7147 43.0889 26.5574 41.9316 25.1299 41.9316C23.7023 41.9316 22.545 43.0889 22.545 44.5165C22.545 45.944 23.7023 47.1013 25.1299 47.1013Z" fill="white"/>
<path d="M38.0536 47.1013C39.4811 47.1013 40.6384 45.944 40.6384 44.5165C40.6384 43.0889 39.4811 41.9316 38.0536 41.9316C36.626 41.9316 35.4688 43.0889 35.4688 44.5165C35.4688 45.944 36.626 47.1013 38.0536 47.1013Z" fill="white"/>
</g>
<defs>
<clipPath id="clip0_1_64">
<rect width="31.0178" height="31.0178" fill="white" transform="translate(16.083 16.0835)"/>
</clipPath>
</defs>
</svg>
