<svg width="64" height="64" viewBox="0 0 64 64" fill="none" xmlns="http://www.w3.org/2000/svg">
<circle cx="31.5922" cy="31.5922" r="31.5922" fill="black"/>
<g clip-path="url(#clip0_1_81)">
<path d="M43.8297 17.4103C43.4658 16.9934 43.0168 16.6593 42.513 16.4304C42.0092 16.2014 41.4622 16.083 40.9089 16.083H22.2749C21.7216 16.0831 21.1747 16.2016 20.671 16.4306C20.1673 16.6596 19.7184 16.9938 19.3546 17.4106C18.9907 17.8275 18.7203 18.3174 18.5615 18.8475C18.4027 19.3775 18.3592 19.9354 18.4339 20.4837L19.0672 25.1299H36.8908C37.2335 25.1299 37.5623 25.266 37.8046 25.5084C38.047 25.7508 38.1832 26.0795 38.1832 26.4223C38.1832 26.765 38.047 27.0938 37.8046 27.3361C37.5623 27.5785 37.2335 27.7147 36.8908 27.7147H19.42L21.3018 41.5111C21.5171 43.0576 22.2833 44.4744 23.4595 45.5013C24.6357 46.5281 26.143 47.0961 27.7043 47.1008H35.4795C37.0406 47.0961 38.5477 46.5284 39.7239 45.5018C40.9001 44.4752 41.6664 43.0586 41.882 41.5124L44.7499 20.4837C44.8247 19.9354 44.7813 19.3774 44.6226 18.8473C44.4639 18.3172 44.1935 17.8273 43.8297 17.4103V17.4103Z" fill="white"/>
</g>
<defs>
<clipPath id="clip0_1_81">
<rect width="31.0178" height="31.0178" fill="white" transform="translate(16.083 16.083)"/>
</clipPath>
</defs>
</svg>
