<svg width="64" height="64" viewBox="0 0 64 64" fill="none" xmlns="http://www.w3.org/2000/svg">
<circle cx="31.5922" cy="31.5922" r="31.5922" fill="black"/>
<g clip-path="url(#clip0_1_73)">
<path d="M47.1005 31.5917C47.1005 29.3998 45.9891 27.4677 44.2986 26.3277C44.6876 24.3271 44.1073 22.1752 42.5577 20.6244C41.0081 19.0748 38.8563 18.4945 36.8543 18.8835C35.7144 17.193 33.7823 16.0815 31.5903 16.0815C29.3984 16.0815 27.4663 17.193 26.3264 18.8835C24.3257 18.4945 22.1726 19.0748 20.623 20.6244C19.0734 22.174 18.4931 24.3258 18.8821 26.3277C17.1916 27.4677 16.0802 29.3998 16.0802 31.5917C16.0802 33.7836 17.1916 35.7158 18.8821 36.8557C18.4931 38.8563 19.0734 41.0095 20.623 42.5591C22.1726 44.1087 24.3244 44.689 26.3264 44.3C27.4663 45.9904 29.3984 47.1019 31.5903 47.1019C33.7823 47.1019 35.7144 45.9904 36.8543 44.3C38.855 44.689 41.0081 44.1087 42.5577 42.5591C44.1073 41.0095 44.6876 38.8576 44.2986 36.8557C45.9891 35.7158 47.1005 33.7836 47.1005 31.5917ZM31.474 36.0105C30.9739 36.5106 30.316 36.7601 29.6556 36.7601C28.9952 36.7601 28.3309 36.508 27.8256 36.004L24.2301 32.5197L26.0304 30.6625L29.6401 34.161L37.1477 26.793L38.9622 28.6347L31.4753 36.0105H31.474Z" fill="white"/>
</g>
<defs>
<clipPath id="clip0_1_73">
<rect width="31.0178" height="31.0178" fill="white" transform="translate(16.083 16.083)"/>
</clipPath>
</defs>
</svg>
