<svg width="127" height="126" viewBox="0 0 127 126" fill="none" xmlns="http://www.w3.org/2000/svg">
<circle cx="63.9907" cy="63" r="63" fill="black"/>
<g clip-path="url(#clip0_34_333)">
<path d="M82.6573 33.6665H45.324C41.7891 33.6707 38.4001 35.0769 35.9006 37.5764C33.401 40.076 31.9949 43.4649 31.9907 46.9998L31.9907 78.9998C31.9949 82.5348 33.401 85.9237 35.9006 88.4233C38.4001 90.9228 41.7891 92.3289 45.324 92.3332H82.6573C86.1922 92.3289 89.5812 90.9228 92.0807 88.4233C94.5803 85.9237 95.9864 82.5348 95.9907 78.9998V46.9998C95.9864 43.4649 94.5803 40.076 92.0807 37.5764C89.5812 35.0769 86.1922 33.6707 82.6573 33.6665V33.6665ZM45.324 38.9998H82.6573C84.2541 39.003 85.8134 39.4839 87.1345 40.3806C88.4557 41.2774 89.4783 42.549 90.0707 44.0318L69.6493 64.4558C68.1465 65.9527 66.1118 66.7931 63.9907 66.7931C61.8696 66.7931 59.8349 65.9527 58.332 64.4558L37.9107 44.0318C38.5031 42.549 39.5256 41.2774 40.8468 40.3806C42.1679 39.4839 43.7272 39.003 45.324 38.9998V38.9998ZM82.6573 86.9998H45.324C43.2023 86.9998 41.1674 86.157 39.6671 84.6567C38.1669 83.1564 37.324 81.1216 37.324 78.9998V50.9998L54.5613 68.2265C57.0643 70.7232 60.4553 72.1253 63.9907 72.1253C67.526 72.1253 70.917 70.7232 73.42 68.2265L90.6573 50.9998V78.9998C90.6573 81.1216 89.8145 83.1564 88.3142 84.6567C86.8139 86.157 84.7791 86.9998 82.6573 86.9998Z" fill="#F7D401"/>
</g>
<defs>
<clipPath id="clip0_34_333">
<rect width="64" height="64" fill="white" transform="translate(31.9907 31)"/>
</clipPath>
</defs>
</svg>
