<svg width="127" height="126" viewBox="0 0 127 126" fill="none" xmlns="http://www.w3.org/2000/svg">
<circle cx="63.9907" cy="63" r="63" fill="black"/>
<g clip-path="url(#clip0_34_332)">
<path d="M87.9907 34.3333H52.8333C51.7293 31.2373 48.796 29 45.324 29H39.9907C35.58 29 31.9907 32.5893 31.9907 37V93H95.9907V42.3333C95.9907 37.9227 92.4013 34.3333 87.9907 34.3333ZM90.6573 42.3333V45H74.6573V39.6667H87.9907C89.4627 39.6667 90.6573 40.8613 90.6573 42.3333ZM37.324 37C37.324 35.528 38.5187 34.3333 39.9907 34.3333H45.324C46.796 34.3333 47.9907 35.528 47.9907 37V77H37.324V37ZM37.324 87.6667V82.3333H53.324V39.6667H69.324V50.3333H90.6573V87.6667H37.324ZM74.6573 58.3333C74.6573 59.8053 73.4627 61 71.9907 61C70.5187 61 69.324 59.8053 69.324 58.3333C69.324 56.8613 70.5187 55.6667 71.9907 55.6667C73.4627 55.6667 74.6573 56.8613 74.6573 58.3333ZM63.9907 58.3333C63.9907 59.8053 62.796 61 61.324 61C59.852 61 58.6573 59.8053 58.6573 58.3333C58.6573 56.8613 59.852 55.6667 61.324 55.6667C62.796 55.6667 63.9907 56.8613 63.9907 58.3333ZM85.324 58.3333C85.324 59.8053 84.1293 61 82.6573 61C81.1853 61 79.9907 59.8053 79.9907 58.3333C79.9907 56.8613 81.1853 55.6667 82.6573 55.6667C84.1293 55.6667 85.324 56.8613 85.324 58.3333ZM74.6573 69C74.6573 70.472 73.4627 71.6667 71.9907 71.6667C70.5187 71.6667 69.324 70.472 69.324 69C69.324 67.528 70.5187 66.3333 71.9907 66.3333C73.4627 66.3333 74.6573 67.528 74.6573 69ZM63.9907 69C63.9907 70.472 62.796 71.6667 61.324 71.6667C59.852 71.6667 58.6573 70.472 58.6573 69C58.6573 67.528 59.852 66.3333 61.324 66.3333C62.796 66.3333 63.9907 67.528 63.9907 69ZM85.324 69C85.324 70.472 84.1293 71.6667 82.6573 71.6667C81.1853 71.6667 79.9907 70.472 79.9907 69C79.9907 67.528 81.1853 66.3333 82.6573 66.3333C84.1293 66.3333 85.324 67.528 85.324 69ZM74.6573 79.6667C74.6573 81.1387 73.4627 82.3333 71.9907 82.3333C70.5187 82.3333 69.324 81.1387 69.324 79.6667C69.324 78.1947 70.5187 77 71.9907 77C73.4627 77 74.6573 78.1947 74.6573 79.6667ZM63.9907 79.6667C63.9907 81.1387 62.796 82.3333 61.324 82.3333C59.852 82.3333 58.6573 81.1387 58.6573 79.6667C58.6573 78.1947 59.852 77 61.324 77C62.796 77 63.9907 78.1947 63.9907 79.6667ZM85.324 79.6667C85.324 81.1387 84.1293 82.3333 82.6573 82.3333C81.1853 82.3333 79.9907 81.1387 79.9907 79.6667C79.9907 78.1947 81.1853 77 82.6573 77C84.1293 77 85.324 78.1947 85.324 79.6667Z" fill="#F7D401"/>
</g>
<defs>
<clipPath id="clip0_34_332">
<rect width="64" height="64" fill="white" transform="translate(31.9907 29)"/>
</clipPath>
</defs>
</svg>
