<svg width="52" height="51" viewBox="0 0 52 51" fill="none" xmlns="http://www.w3.org/2000/svg">
<g clip-path="url(#clip0_1_271)">
<path d="M31.1651 34.5546C24.9779 31.9349 20.0578 27.0034 17.4525 20.8101L24.6775 13.5724L11.375 0.25925L4.6366 6.9955C3.46785 8.17093 2.54379 9.56645 1.91787 11.1013C1.29196 12.6362 0.97662 14.28 0.9901 15.9375C0.9901 31.3395 20.6506 51 36.0526 51C37.71 51.0145 39.3537 50.6996 40.8884 50.0736C42.423 49.4476 43.8181 48.523 44.9925 47.3535L51.7308 40.6151L38.4177 27.302L31.1651 34.5546ZM41.9856 44.3488C41.2052 45.1223 40.2788 45.733 39.2603 46.1452C38.2417 46.5575 37.1513 46.7631 36.0526 46.75C22.8075 46.75 5.2401 29.1826 5.2401 15.9375C5.22759 14.8385 5.4334 13.748 5.8456 12.7292C6.2578 11.7103 6.86818 10.7835 7.64135 10.0024L11.375 6.26875L18.6786 13.5724L12.4417 19.8092L12.9623 21.114C14.495 25.2138 16.891 28.9362 19.9879 32.0292C23.0849 35.1221 26.8104 37.5132 30.9122 39.0405L32.2 39.5314L38.4177 33.3115L45.7213 40.6151L41.9856 44.3488ZM30.7401 4.25V0C36.3741 0.00618714 41.7755 2.24701 45.7593 6.23081C49.7431 10.2146 51.9839 15.616 51.9901 21.25H47.7401C47.735 16.7429 45.9423 12.4218 42.7553 9.23478C39.5683 6.04775 35.2472 4.25506 30.7401 4.25V4.25ZM30.7401 12.75V8.5C34.1206 8.50338 37.3616 9.84776 39.752 12.2381C42.1423 14.6285 43.4867 17.8695 43.4901 21.25H39.2401C39.2401 18.9957 38.3446 16.8337 36.7505 15.2396C35.1564 13.6455 32.9944 12.75 30.7401 12.75Z" fill="#F7D401"/>
</g>
<defs>
<clipPath id="clip0_1_271">
<rect width="51" height="51" fill="white" transform="translate(0.990662)"/>
</clipPath>
</defs>
</svg>
